<?xml version="1.0" encoding="UTF-8" standalone="no"?>
<!-- Created with Inkscape (http://www.inkscape.org/) -->

<svg
   xmlns:dc="http://purl.org/dc/elements/1.1/"
   xmlns:cc="http://creativecommons.org/ns#"
   xmlns:rdf="http://www.w3.org/1999/02/22-rdf-syntax-ns#"
   xmlns:svg="http://www.w3.org/2000/svg"
   xmlns="http://www.w3.org/2000/svg"
   xmlns:sodipodi="http://sodipodi.sourceforge.net/DTD/sodipodi-0.dtd"
   xmlns:inkscape="http://www.inkscape.org/namespaces/inkscape"
   width="210mm"
   height="297mm"
   viewBox="0 0 210 297"
   version="1.1"
   id="svg8"
   inkscape:version="0.92.1 r"
   sodipodi:docname="Reserverat.svg">
  <defs
     id="defs2" />
  <sodipodi:namedview
     id="base"
     pagecolor="#ffffff"
     bordercolor="#666666"
     borderopacity="1.0"
     inkscape:pageopacity="0.0"
     inkscape:pageshadow="2"
     inkscape:zoom="0.88"
     inkscape:cx="230.25974"
     inkscape:cy="389.02424"
     inkscape:document-units="mm"
     inkscape:current-layer="layer1"
     showgrid="false"
     inkscape:window-width="1920"
     inkscape:window-height="1050"
     inkscape:window-x="0"
     inkscape:window-y="0"
     inkscape:window-maximized="0" />
  <metadata
     id="metadata5">
    <rdf:RDF>
      <cc:Work
         rdf:about="">
        <dc:format>image/svg+xml</dc:format>
        <dc:type
           rdf:resource="http://purl.org/dc/dcmitype/StillImage" />
        <dc:title></dc:title>
      </cc:Work>
    </rdf:RDF>
  </metadata>
  <g
     inkscape:label="Layer 1"
     inkscape:groupmode="layer"
     id="layer1">
    <path
       style="opacity:1;fill:#000000;fill-opacity:1;stroke:#000000;stroke-width:0.02804583;stroke-linecap:round;stroke-linejoin:bevel;stroke-miterlimit:4;stroke-dasharray:none;stroke-dashoffset:0;stroke-opacity:1"
       id="path4493"
       d="m 40.588334,15.593193 c -3.479339,0.994639 -6.781863,2.534253 -10.060429,4.046408 -1.455383,0.569678 -2.75645,1.446776 -4.162154,2.11423 -0.565453,0.268488 1.631923,-1.521461 1.650449,-0.895778 0.01982,0.669667 -1.108004,0.754423 -1.642682,1.158114 -1.353349,1.021799 -1.296376,1.043978 -2.423766,2.193908 -0.714274,1.003158 -0.952295,1.207469 -1.406119,2.371668 -1.063431,2.72802 -1.039495,6.451025 -1.1788,9.333018 -0.23875,8.281447 -0.244125,16.568716 -0.164705,24.852672 0.02966,2.072534 -0.01128,4.388247 0.277372,6.463149 0.167471,1.203835 0.527072,2.987352 1.353174,4.003312 0.941048,1.15732 2.127821,1.447776 3.437805,1.996012 3.661783,0.92942 7.450621,1.020241 11.204667,1.116465 0,0 -3.293374,2.375651 -3.293374,2.375651 v 0 C 30.377698,76.559467 26.54518,76.419476 22.828437,75.522076 21.400179,74.894016 20.201118,74.594087 19.202555,73.291202 18.380218,72.21825 18.065062,70.310461 17.929898,69.066454 17.703795,66.985467 17.796441,64.5582 17.815863,62.492691 c 0.04434,-8.263096 -0.0633,-16.525647 0.0058,-24.78868 0.04587,-1.93257 0.06128,-3.815895 0.211159,-5.741908 0.10935,-1.40516 0.183881,-2.315935 0.631416,-3.610798 0.430131,-1.244513 0.650192,-1.427205 1.370074,-2.510528 0.360712,-0.381868 0.69735,-0.788006 1.082136,-1.145604 0.659594,-0.612987 2.324782,-1.90291 3.047919,-2.349649 3.100853,-1.915644 6.253067,-3.733857 9.567259,-5.251555 3.390143,-1.554791 6.805488,-3.070122 10.348971,-4.246984 0,0 -3.492299,2.746208 -3.492299,2.746208 z"
       inkscape:connector-curvature="0" />
    <path
       style="opacity:1;fill:#000000;fill-opacity:1;stroke:#000000;stroke-width:0.02804583;stroke-linecap:round;stroke-linejoin:bevel;stroke-miterlimit:4;stroke-dasharray:none;stroke-dashoffset:0;stroke-opacity:1"
       id="path4495"
       d="m 31.122665,48.854182 c 3.044806,0.07058 6.090938,0.07613 9.136448,0.07078 1.170025,-0.0024 2.142279,-6e-5 3.301672,-0.01836 0.407014,-0.0064 1.706332,-0.2604 1.902182,0.38798 0.05213,0.172588 -0.0054,0.360542 -0.0081,0.540811 -0.08057,0.181674 -0.153879,0.366736 -0.2417,0.545015 -0.188883,0.383442 -0.555135,0.990942 -0.71487,1.372383 -0.524637,1.252813 -0.763082,2.582522 -1.020961,3.907399 -0.551193,3.387833 -0.642075,6.826972 -0.695809,10.252019 -0.06245,1.743644 0.04964,3.489568 0.02521,5.232866 -0.01217,0.868587 -0.07318,1.635924 -0.129432,2.502908 -0.197908,2.024607 -0.263622,4.058727 -0.416644,6.086176 -0.07805,1.107575 -0.258077,2.208612 -0.616503,3.260801 -0.111948,0.309817 -0.265668,0.601046 -0.417772,0.892231 0,0 -4.062256,1.831491 -4.062256,1.831491 v 0 c 0.14733,-0.288481 0.321958,-0.560144 0.447688,-0.859386 0.464103,-0.990345 0.610391,-2.099024 0.738166,-3.175333 0.202467,-2.033733 0.272391,-4.079981 0.49053,-6.112962 0.175212,-2.580704 0.113003,-5.170099 0.187753,-7.754961 0.0705,-3.438666 0.123503,-6.889957 0.635262,-10.298242 0.222719,-1.31743 0.409668,-2.695067 0.858666,-3.962075 0.22534,-0.63587 0.620001,-1.205738 0.920512,-1.805477 0.318971,-0.306946 0.147457,-0.28603 -0.362397,-0.319685 -1.399691,-0.0924 -2.808833,7.93e-4 -4.209304,-0.04396 -3.110471,-0.0055 -6.221479,0.0021 -9.331293,0.07078 0,0 3.582982,-2.603187 3.582982,-2.603187 z"
       inkscape:connector-curvature="0" />
    <path
       style="opacity:1;fill:#000000;fill-opacity:1;stroke:#000000;stroke-width:0.02804583;stroke-linecap:round;stroke-linejoin:bevel;stroke-miterlimit:4;stroke-dasharray:none;stroke-dashoffset:0;stroke-opacity:1"
       id="path4497"
       d="m 55.802826,51.873774 c -0.09333,2.473793 -0.09586,4.949626 -0.09527,7.424814 0.02289,2.7833 0.01392,5.566547 0.0093,8.349853 -0.0051,2.53383 0.01892,5.067575 0.025,7.601371 -0.103835,1.102095 0.210958,2.263391 -0.08383,3.347823 -0.04733,0.174122 -0.0549,0.398809 -0.20307,0.501793 -1.29308,0.898747 -2.693755,1.631841 -4.04063,2.44776 -0.155768,-0.182721 -0.36736,-0.329845 -0.467299,-0.548163 -0.258455,-0.5646 -0.467455,-2.103946 -0.527071,-2.625627 -0.230941,-2.020965 -0.306012,-4.063127 -0.399613,-6.0935 -0.116626,-2.967561 -0.220136,-5.936366 -0.247925,-8.906269 -0.01656,-1.516541 -0.01498,-3.033191 -0.02405,-4.549775 0.144708,-1.057415 0.759489,-2.0164 1.701988,-2.550205 1.468072,-0.831477 2.961105,-1.618083 4.441658,-2.427123 1.970453,-0.462635 4.02245,-0.437846 6.036215,-0.460698 1.89249,-0.01537 3.785018,-0.003 5.677537,-0.0013 0,0 -3.495365,2.537918 -3.495365,2.537918 v 0 c -1.888652,-0.0097 -3.777393,-0.0164 -5.666012,0.003 -2.005259,0.04139 -4.069419,0.0095 -5.997112,0.633177 1.03347,-0.627078 2.071396,-1.24687 3.100411,-1.881238 0.181721,-0.11203 -0.382889,0.192156 -0.558181,0.314 -0.640088,0.444912 -1.126186,1.076476 -1.316212,1.833742 -0.0164,1.52745 -0.02723,3.054964 -0.04408,4.582411 -0.01685,2.991403 -0.05197,5.983862 0.07336,8.973812 0.09991,2.003076 0.181078,4.010586 0.474991,5.997533 0.08101,0.547664 0.277804,1.716564 0.548293,2.303103 0.02559,0.05548 0.109749,0.05373 0.164624,0.08059 -1.155012,0.718323 -2.270467,1.504556 -3.465039,2.154968 -0.143865,0.07833 0.198689,-0.263861 0.266015,-0.413192 0.08187,-0.181594 0.149987,-0.37333 0.177535,-0.570613 0.11766,-0.842661 -0.06773,-1.87514 0.02635,-2.724105 0.0061,-2.542292 0.03,-5.08453 0.025,-7.626853 -0.0046,-2.786481 -0.01347,-5.572903 0.0093,-8.359378 5.3e-4,-2.442819 -5.29e-4,-4.886362 -0.09527,-7.327731 0,0 3.968343,-2.021969 3.968343,-2.021969 z"
       inkscape:connector-curvature="0" />
    <path
       style="opacity:1;fill:#000000;fill-opacity:1;stroke:#000000;stroke-width:0.02804583;stroke-linecap:round;stroke-linejoin:bevel;stroke-miterlimit:4;stroke-dasharray:none;stroke-dashoffset:0;stroke-opacity:1"
       id="path4499"
       d="m 72.929487,54.127939 c -0.151437,3.710239 -0.135141,7.424645 -0.144002,11.137212 -0.05268,4.594061 0.552191,9.147564 1.385813,13.653688 0.57961,2.478045 1.202796,4.970645 2.147925,7.34051 0.556879,1.396349 0.784061,1.713695 1.492475,2.985693 0.968912,1.461381 1.888802,2.697004 3.622786,3.189121 -0.223245,0.544957 1.128932,-0.290338 0.865754,-0.160425 -1.136777,0.561152 -2.177325,1.366126 -3.398079,1.70806 -0.294518,0.08249 0.263264,-0.556017 0.341112,-0.851797 0.283467,-1.077031 0.343067,-2.197314 0.451869,-3.298219 0.274322,-4.124746 0.236455,-8.261689 0.274174,-12.393163 -0.01624,-4.053152 -0.02585,-8.106325 -0.04956,-12.159334 -0.01828,-2.14489 -0.06197,-4.289449 -0.100841,-6.434037 -0.04136,-2.433928 -0.435576,-2.391828 3.93528,-3.132182 0.295328,-0.05002 -0.02193,0.598667 -0.03289,0.898001 -0.196046,3.804324 0.358151,7.580265 0.989163,11.319322 0.566037,3.37893 1.138645,6.755024 1.839058,10.108872 0.567897,3.624233 2.799887,6.597337 5.077881,9.347805 1.096954,1.343981 2.375074,2.507282 3.678158,3.64289 0,0 -3.610663,2.238573 -3.610663,2.238573 v 0 c -1.273789,-1.185929 -2.53211,-2.389905 -3.639606,-3.737697 -0.425465,-0.5114 -0.868476,-1.0087 -1.276395,-1.534203 -1.2208,-1.572686 -2.250635,-3.265836 -3.090989,-5.07048 -0.253156,-0.54365 -0.517406,-1.086374 -0.697516,-1.658392 C 82.866941,80.87565 82.852113,80.457301 82.78297,80.05207 82.149444,76.666613 81.57593,73.273141 81.059217,69.867541 80.442913,66.13658 79.846193,62.38051 79.839184,58.589126 c -0.09029,-2.369238 -0.288081,-0.988642 3.92957,-3.338854 0.07897,-0.044 -0.0066,0.180684 -0.0084,0.271066 -0.0087,0.441627 -0.0074,0.883465 -0.01873,1.325057 -0.03756,2.177111 -0.07784,4.354251 -0.0916,6.531671 -0.01408,4.064667 -0.0048,8.129516 -0.0172,12.194318 0.03045,4.129299 0.01984,8.26109 -0.186172,12.386426 -0.0512,0.784857 -0.139655,2.485173 -0.272295,3.319229 -0.05143,0.323369 0.01341,0.741924 -0.236591,0.953376 -1.265304,1.070224 -2.722147,1.895107 -4.141835,2.750005 -0.145965,0.0879 -0.338635,0.06136 -0.508667,0.0504 -0.175633,-0.01132 -0.343339,-0.07757 -0.515006,-0.116353 -1.74407,-0.68865 -2.674821,-1.993083 -3.633303,-3.562864 -0.606954,-1.147492 -1.008642,-1.835242 -1.493203,-3.065531 -0.221736,-0.56298 -0.393602,-1.144384 -0.582726,-1.719141 -0.616429,-1.873374 -1.163172,-3.76746 -1.546471,-5.704186 -0.793708,-4.536461 -1.436433,-9.117528 -1.389171,-13.734703 -0.0088,-3.66363 0.0094,-7.32926 -0.144002,-10.990466 0,0 3.946096,-2.010638 3.946096,-2.010638 z"
       inkscape:connector-curvature="0" />
    <path
       style="opacity:1;fill:#000000;fill-opacity:1;stroke:#000000;stroke-width:0.02804583;stroke-linecap:round;stroke-linejoin:bevel;stroke-miterlimit:4;stroke-dasharray:none;stroke-dashoffset:0;stroke-opacity:1"
       id="path4501"
       d="m 98.483051,58.675264 c -0.109411,3.348731 -0.113236,6.700292 -0.133877,10.050518 -0.07002,5.420392 -0.04757,10.841625 -0.02466,16.262291 7.94e-4,4.77397 5.29e-4,9.547794 0.03563,14.321706 0.02638,1.664701 0.014,3.330291 0.04857,4.994881 0.0069,0.3305 0.01566,0.66109 0.03525,0.99108 0.0077,0.12901 0.159404,0.32217 0.04642,0.38494 -1.269252,0.70507 -2.646104,1.1961 -3.969155,1.79416 0.157673,-3.59309 0.165298,-7.19233 0.171651,-10.788519 -0.02739,-4.245374 -0.0232,-8.490799 -0.03433,-12.736187 0.02588,-2.767295 -0.119436,-5.536422 -0.04138,-8.3029 0.09757,-2.319112 1.285092,-3.904408 2.849382,-5.499261 2.934058,-2.44601 6.352818,-4.399449 10.023538,-5.480352 0.44299,-0.07819 1.78894,-0.630478 2.22253,-0.579151 0.86806,0.102758 1.1531,1.063169 1.41746,1.723138 0.53619,2.285984 0.52625,4.659606 0.55512,6.99571 -0.0813,2.472833 -0.80455,4.673267 -1.92369,6.852097 -0.44181,0.845797 -1.04438,1.49428 -1.87952,1.959735 -3.42193,1.907164 -3.52977,2.412992 -6.3097,2.78902 -1.711923,0.164079 -3.434188,0.1314 -5.151583,0.128662 0,0 3.49441,-2.53842 3.49441,-2.53842 v 0 c 1.713083,-5.6e-5 3.434193,0.0127 5.136703,-0.204238 0.29614,-0.05558 0.59557,-0.09586 0.88842,-0.166745 0.27096,-0.06559 1.02526,-0.407131 0.80056,-0.242105 -0.9216,0.676842 -1.96211,1.175735 -2.92066,1.799146 -0.25058,0.16297 0.54675,-0.248674 0.79429,-0.416224 0.68593,-0.46428 0.72718,-0.659501 1.19667,-1.334675 1.18097,-2.120667 1.93414,-4.215405 2.04147,-6.668341 -0.0198,-2.277846 0.0124,-4.596249 -0.53524,-6.821776 -0.14752,-0.357148 -0.27149,-0.870183 -0.64556,-1.100479 -0.54351,-0.334618 -2.02439,0.367536 -2.60895,0.473144 -0.87891,0.277558 -1.15439,0.340315 -2.02286,0.720132 -0.3798,0.166098 -1.46499,0.769417 -1.12145,0.53744 0.81052,-0.547303 1.67286,-1.014653 2.5288,-1.487765 0.37177,-0.205488 -0.72855,0.438536 -1.07506,0.684234 -0.31955,0.226584 -0.61361,0.487129 -0.92041,0.730694 -1.551285,1.473714 -2.803328,2.974031 -2.971518,5.194687 -0.113001,2.786372 -0.0697,5.577141 -0.113308,8.365034 -0.01111,4.257054 -0.007,8.514141 -0.03433,12.771178 0.0063,3.537829 0.01138,7.079037 0.171654,10.613587 -1.323055,0.75021 -2.589258,1.61097 -3.969158,2.25062 -0.131471,0.0609 0.03833,-0.28756 0.04642,-0.43225 0.113105,-2.02073 0.02273,-4.04936 0.08383,-6.07138 0.03492,-4.786017 0.03479,-9.571941 0.03563,-14.358013 0.02278,-5.412284 0.04565,-10.825149 -0.02466,-16.237156 -0.02048,-3.304741 -0.02331,-6.610908 -0.133877,-9.914096 0,0 3.940538,-2.007801 3.940538,-2.007801 z"
       inkscape:connector-curvature="0" />
    <path
       style="opacity:1;fill:#000000;fill-opacity:1;stroke:#000000;stroke-width:0.02804583;stroke-linecap:round;stroke-linejoin:bevel;stroke-miterlimit:4;stroke-dasharray:none;stroke-dashoffset:0;stroke-opacity:1"
       id="path4503"
       d="m 120.14468,57.285707 c -0.12538,2.97435 -0.113,5.953355 -0.11517,8.929899 -0.007,3.449169 -5.3e-4,6.89828 0.0241,10.347388 0.0345,2.832031 -5.3e-4,5.663618 -0.008,8.495456 -0.0128,2.474037 0.027,4.947849 0.0591,7.421573 0.0119,1.158333 0.0222,2.316665 0.0295,3.475032 -0.005,0.882232 0.005,1.764453 0.003,2.646677 8e-4,0.844246 -0.003,1.688478 2.6e-4,2.532718 0.023,1.89874 0.57871,0.62342 -3.97645,2.38708 -0.11377,0.044 0.0126,-0.24368 0.0175,-0.36558 0.0326,-0.81159 0.0247,-0.67735 0.0394,-1.5658 0.007,-1.757851 0.007,-3.515838 -0.007,-5.273663 -0.0175,-1.066171 -0.0211,-2.13237 -0.025,-3.198633 -0.004,-0.805741 -0.007,-1.611519 -0.004,-2.41727 0.0116,-0.989224 0.006,-1.978549 0.009,-2.967824 -0.006,-1.18501 -0.0158,-2.366618 0.065,-3.548962 0.0654,-2.296223 0.57338,-4.548002 1.29572,-6.719644 0.46337,-1.478298 1.2125,-2.803842 2.10358,-4.058155 0.65345,-0.791908 1.19346,-1.653212 1.71992,-2.5312 0.46799,-0.694939 0.86919,-1.430605 1.28255,-2.158494 1.11972,-1.859103 2.64437,-3.408559 4.43562,-4.618146 1.94416,-0.546325 3.62752,-2.267554 5.53679,-3.125325 0.55094,-0.24752 1.14471,-0.380095 1.73199,-0.503396 0.95512,-0.189595 1.92842,-0.195916 2.89772,-0.204774 0.15009,0.103042 0.33111,0.171479 0.45026,0.309126 0.84622,0.977582 0.86503,3.850523 0.93016,5.093546 0.0681,2.944575 0.0702,5.890025 0.0881,8.835163 0.0454,1.786633 -0.18043,3.657576 -1.04425,5.253759 -0.13197,0.243856 -0.29778,0.467821 -0.44667,0.701733 -1.66572,1.949559 -3.93689,2.912007 -6.25612,4.063884 -0.28411,0.141105 -1.60506,0.325498 -1.89095,0.370798 -2.81117,0.226494 -5.63604,0.205057 -8.45446,0.215045 -2.0077,0.01114 -4.01543,0.0081 -6.02314,0.0127 -0.22915,0.0011 -0.45831,0.0021 -0.68746,0.0032 0,0 3.55379,-2.580465 3.55379,-2.580465 v 0 c 0.22457,0.0024 0.44913,0.0047 0.6737,0.007 1.97794,0.01752 3.95588,0.03666 5.93386,0.04943 2.82372,-2.65e-4 5.66267,0.03838 8.46891,-0.31917 0.3195,-0.06337 0.64258,-0.110797 0.95851,-0.190111 1.66142,-0.41711 2.42982,-1.181269 -2.0838,1.547072 -0.2145,0.129659 0.43045,-0.258213 0.633,-0.405847 0.45648,-0.332722 0.76075,-0.643242 1.17042,-1.028833 0.16155,-0.217212 0.34013,-0.422735 0.48464,-0.651634 0.9535,-1.510334 1.21328,-3.351527 1.18994,-5.103103 0.0288,-2.937733 0.056,-5.878166 -0.0752,-8.813893 -0.054,-0.904153 -0.0765,-1.560557 -0.19221,-2.452658 -0.0772,-0.595035 -0.14131,-1.723758 -0.64564,-2.18762 -0.0833,-0.07662 -0.21182,-0.07982 -0.31774,-0.119727 -0.94607,0.01453 -1.89603,0.05363 -2.82149,0.269709 -0.47079,0.125187 -0.64517,0.156474 -1.10079,0.338989 -1.45845,0.584229 -4.60314,2.632395 1.40337,-0.966351 -1.8021,1.091483 -3.4151,2.534394 -4.44655,4.395645 -0.42902,0.724767 -0.79654,1.485728 -1.28675,2.172284 -0.55041,0.878012 -1.02423,1.801882 -1.73052,2.572483 -0.40416,0.549333 -0.84726,1.083953 -1.18222,1.680358 -0.40785,0.726168 -0.72424,1.51097 -1.02457,2.28527 -0.7769,2.118834 -1.35416,4.329763 -1.35099,6.602553 -0.008,1.166881 -0.009,2.333762 -0.007,3.50067 0.002,0.986345 -0.003,1.972739 0.009,2.959031 0.003,0.807247 -2.5e-4,1.614522 -0.004,2.421758 -0.004,1.074753 -0.008,2.149446 -0.025,3.224106 -0.013,1.760056 -0.0139,3.520271 -0.007,5.280351 0.0146,0.863175 0.007,0.742475 0.0394,1.525605 0.005,0.11596 0.11561,0.28575 0.0175,0.34775 -4.69294,2.96533 -3.99234,3.57055 -3.97643,1.66512 0.003,-0.84433 -5.3e-4,-1.68865 2.5e-4,-2.53298 -0.002,-0.883337 0.008,-1.766675 0.003,-2.650021 0.007,-1.168387 0.0177,-2.336739 0.0295,-3.505094 0.0319,-2.493804 0.0717,-4.987695 0.0591,-7.481805 -0.007,-2.82915 -0.0424,-5.658051 -0.008,-8.4874 0.0245,-3.457289 0.0316,-6.914586 0.0241,-10.371936 -0.002,-2.93738 0.012,-5.877444 -0.11517,-8.81253 0,0 3.96834,-2.02197 3.96834,-2.02197 z"
       inkscape:connector-curvature="0" />
    <path
       style="opacity:1;fill:#000000;fill-opacity:1;stroke:#000000;stroke-width:0.02804583;stroke-linecap:round;stroke-linejoin:bevel;stroke-miterlimit:4;stroke-dasharray:none;stroke-dashoffset:0;stroke-opacity:1"
       id="path4505"
       d="m 145.9364,34.682049 c 0.0119,-0.349883 0.008,-0.785051 0.1192,-1.115021 0.36364,-1.07543 1.33163,-1.97558 2.27265,-2.551358 1.74381,-1.066972 3.54587,-2.035678 5.3188,-3.053514 3.9363,-1.933313 8.22168,-2.84783 12.54014,-3.404506 2.07628,-0.242573 4.1632,-0.382788 6.25343,-0.389782 0.19271,0.0013 0.39554,-0.05773 0.57815,0.0039 1.40265,0.473162 1.89402,3.213508 2.15511,4.404228 0.62215,4.059883 0.76366,8.181692 0.88633,12.282262 0.10007,3.726125 0.18552,7.45268 0.23697,11.17981 -0.10515,1.740577 0.28006,3.541869 -0.15733,5.248458 -0.0831,0.166229 -0.14466,0.345112 -0.24931,0.498692 -0.22277,0.326935 -0.60412,0.686514 -0.94351,0.887658 -1.55814,0.923465 -3.13932,1.807554 -4.71516,2.70047 -0.38144,0.216135 -1.53466,0.848254 -1.15644,0.626541 0.81425,-0.477306 1.64324,-0.929013 2.46485,-1.393521 -2.51451,1.549848 -4.44324,3.629973 -6.30396,5.884813 -1.23761,1.517126 -2.33582,3.138741 -3.27637,4.85481 -0.96032,1.814288 -2.31948,3.400414 -3.74592,4.864526 -1.04354,0.986054 -2.1956,1.840611 -3.1637,2.904297 -0.61759,0.660048 -0.92936,1.472147 -1.19367,2.318067 -0.0172,0.145405 -0.37673,0.889603 -0.27951,0.975432 0.21345,0.188439 1.82308,0.298865 1.967,0.314412 4.40992,0.25998 8.83233,0.238297 13.24842,0.239752 4.09503,-0.0016 8.18978,-0.05569 12.28469,-0.07631 1.73767,0.03633 3.46862,-0.05664 5.19971,-0.190929 0,0 -3.5262,2.598793 -3.5262,2.598793 v 0 c -1.70176,0.09974 -3.40373,0.128069 -5.10839,0.08833 -4.03799,-0.01117 -8.07591,-0.05027 -12.11395,-0.04853 -4.50217,-0.0019 -9.00867,0.08374 -13.50773,-0.108689 -0.59898,-0.06478 -2.57185,-0.04471 -2.48762,-1.140359 0.0209,-0.272566 0.37286,-0.453456 0.31233,-0.758306 0.27443,-0.884489 0.51594,-1.776836 1.13436,-2.4975 0.9646,-1.11025 2.105,-2.008783 3.2244,-2.957735 1.43966,-1.400617 2.82555,-2.922688 3.74091,-4.726982 0.96631,-1.763549 2.11231,-3.420938 3.37478,-4.985734 0.45998,-0.562886 1.41048,-1.740276 1.89514,-2.275459 1.28483,-1.418768 2.76615,-2.659849 4.34304,-3.739825 1.61637,-0.942647 3.22802,-1.893422 4.84909,-2.827943 0.38983,-0.224732 1.56551,-0.887085 1.1833,-0.649626 -0.89959,0.558897 -1.82319,1.078211 -2.73642,1.614543 -0.29082,0.170791 0.56819,-0.254749 0.9971,-0.705501 0.11601,-0.121926 0.19802,-0.27219 0.29703,-0.408287 0.066,-0.166671 0.15301,-0.326485 0.19797,-0.500015 0.12577,-0.485455 0.0999,-0.913807 0.10771,-1.4142 0.017,-1.090166 0.0274,-2.18041 0.0317,-3.2707 0.031,-3.751249 0.0533,-7.503565 -0.0633,-11.25375 -0.15889,-4.051268 -0.31178,-8.124862 -1.0117,-12.125894 -0.26254,-1.090525 -0.54602,-2.881233 -1.50337,-3.639648 -0.34666,-0.274619 -0.61706,-0.202385 -1.02842,-0.206124 -2.0186,-0.0044 -4.03766,0.07077 -6.04434,0.304351 -4.29781,0.562821 -8.55619,1.499105 -12.43152,3.520463 0.62931,-0.381113 1.2127,-0.851193 1.88792,-1.143336 0.42062,-0.181983 -0.7602,0.51475 -1.11252,0.80785 -0.80655,0.670978 -1.3682,1.327396 -1.26241,2.409015 0,0 -3.97946,2.027637 -3.97946,2.027637 z"
       inkscape:connector-curvature="0" />
    <path
       style="opacity:1;fill:#000000;fill-opacity:1;stroke:#000000;stroke-width:0.02804583;stroke-linecap:round;stroke-linejoin:bevel;stroke-miterlimit:4;stroke-dasharray:none;stroke-dashoffset:0;stroke-opacity:1"
       id="path4507"
       d="m 25.427533,104.60192 c -0.09944,3.20367 -0.128169,6.40929 -0.138571,9.61439 0.0032,4.05662 0.01364,8.11326 0.02901,12.16985 0.01417,2.31037 0.03291,4.62067 0.05976,6.93092 0,0 -3.852053,1.96272 -3.852053,1.96272 v 0 c 0.02677,-2.33055 0.04556,-4.66115 0.05976,-6.99182 0.01535,-4.06644 0.02585,-8.13294 0.02901,-12.19941 -0.01028,-3.15803 -0.03786,-6.31663 -0.138571,-9.47318 0,0 3.951658,-2.01347 3.951658,-2.01347 z"
       inkscape:connector-curvature="0" />
    <path
       style="opacity:1;fill:#000000;fill-opacity:1;stroke:#000000;stroke-width:0.02804583;stroke-linecap:round;stroke-linejoin:bevel;stroke-miterlimit:4;stroke-dasharray:none;stroke-dashoffset:0;stroke-opacity:1"
       id="path4511"
       d="m 21.367693,104.16881 c 1.601952,0.0353 3.20449,0.0322 4.806739,0.0286 2.20626,-5.3e-4 4.41189,0.0277 6.61833,0.0154 1.463233,-0.008 2.926371,-0.0261 4.389594,-0.0356 1.215035,-7.9e-4 2.430094,0.005 3.645043,0.0197 1.947698,0.01 3.895322,-0.0108 5.84283,0.0196 2.062247,0.0112 4.124497,-0.008 6.186607,-0.0301 0.612211,-0.007 1.224415,-0.0133 1.836663,-0.0139 0,0 -3.593182,2.61059 -3.593182,2.61059 v 0 c -0.599493,-5.2e-4 -1.198941,-0.007 -1.798391,-0.0139 -2.034477,-0.0221 -4.069093,-0.0414 -6.103707,-0.0301 -1.965548,0.0294 -3.931172,0.0104 -5.896899,0.0196 -1.232982,0.0145 -2.466067,0.0206 -3.699134,0.0197 -1.430557,-0.009 -2.861027,-0.0275 -4.291597,-0.0356 -2.22055,-0.0126 -4.440316,0.0161 -6.660694,0.0154 -1.628468,-0.004 -3.257191,-0.006 -4.88538,0.0286 0,0 3.603178,-2.61787 3.603178,-2.61787 z"
       inkscape:connector-curvature="0" />
    <path
       style="opacity:1;fill:#000000;fill-opacity:1;stroke:#000000;stroke-width:0.02804583;stroke-linecap:round;stroke-linejoin:bevel;stroke-miterlimit:4;stroke-dasharray:none;stroke-dashoffset:0;stroke-opacity:1"
       id="path4513"
       d="m 41.075906,105.01634 c -0.04698,1.39837 -0.04525,2.79778 -0.04285,4.19675 5.29e-4,1.37983 0.01302,2.75955 0.01421,4.13937 -0.04207,1.95592 -0.05107,3.91214 -0.02098,5.86868 0.02146,1.35323 0.01797,2.70682 0.02037,4.06022 -0.0062,1.37318 -0.0034,2.74639 -0.0062,4.11959 -0.04115,1.97779 -0.03791,3.95563 -0.01159,5.93391 0.01839,1.01508 0.03174,2.03014 0.03606,3.04537 0.01386,0.62356 0.07435,1.24992 -0.337757,1.75852 -4.132022,2.33241 -2.510801,2.1277 -4.32055,2.31629 0,0 3.553346,-2.70554 3.553346,-2.70554 v 0 c 1.534453,-0.57445 0.295605,-0.12526 -3.392437,2.02979 0.692705,-0.2166 0.528997,-0.77631 0.539916,-1.38262 0.0043,-1.02748 0.01781,-2.05479 0.03606,-3.08212 0.0259,-1.97434 0.03001,-3.94827 -0.01159,-5.92209 -0.0028,-1.3711 3.7e-5,-2.7422 -0.0062,-4.11328 0.0024,-1.36032 -0.0011,-2.72083 0.02037,-4.08099 0.02951,-1.94942 0.0218,-3.89853 -0.02098,-5.84728 0.0013,-1.38465 0.01371,-2.7692 0.01421,-4.15385 0.0024,-1.38441 0.0047,-2.76929 -0.04285,-4.15308 0,0 3.979463,-2.02764 3.979463,-2.02764 z"
       inkscape:connector-curvature="0" />
    <path
       style="opacity:1;fill:#000000;fill-opacity:1;stroke:#000000;stroke-width:0.02804583;stroke-linecap:round;stroke-linejoin:bevel;stroke-miterlimit:4;stroke-dasharray:none;stroke-dashoffset:0;stroke-opacity:1"
       id="path4515"
       d="m 21.886065,131.95791 c 2.64486,-0.63623 5.307823,-1.19275 7.963946,-1.77939 2.757014,-0.55266 5.42241,-1.48088 8.176416,-2.03624 1.948058,-0.38361 3.931846,-0.46332 5.911032,-0.49427 1.66728,-0.0163 3.334642,-0.0147 5.001972,-0.0172 1.156004,0.0104 2.312019,-0.002 3.468026,-0.004 0,0 -3.584115,2.60345 -3.584115,2.60345 v 0 c -1.146365,-0.003 -2.292659,-0.0214 -3.439054,-0.0189 -1.6515,-0.0148 -3.303294,-0.0312 -4.954746,-0.004 -1.954308,0.0504 -3.913283,0.1429 -5.834137,0.53764 -2.715058,0.59497 -5.374079,1.42496 -8.098739,1.98377 -2.716036,0.61209 -5.463126,1.13421 -8.1198,1.9759 0,0 3.509199,-2.74717 3.509199,-2.74717 z"
       inkscape:connector-curvature="0" />
    <path
       style="opacity:1;fill:#000000;fill-opacity:1;stroke:#000000;stroke-width:0.02804583;stroke-linecap:round;stroke-linejoin:bevel;stroke-miterlimit:4;stroke-dasharray:none;stroke-dashoffset:0;stroke-opacity:1"
       id="path4517"
       d="m 65.72192,105.72981 c -0.07951,2.19337 -0.07184,4.38863 -0.07348,6.58309 -0.01773,2.90405 -0.01315,5.80809 -0.01058,8.71221 0.0088,1.81599 -0.01355,3.66103 -0.396518,5.44538 -0.187397,0.87312 -0.342286,1.23343 -0.632645,2.05682 -0.683676,1.66222 -1.28278,3.35653 -1.921016,5.03603 -0.2496,0.7248 -0.557072,1.42259 -0.923245,2.09499 0,0 -4.044143,1.79819 -4.044143,1.79819 v 0 c 0.40589,-0.64881 0.74557,-1.32965 0.997866,-2.05445 0.679169,-1.67193 1.24542,-3.38851 1.96147,-5.04634 0.299667,-0.76156 0.497903,-1.1973 0.700389,-2.00485 0.440933,-1.75854 0.471048,-3.59073 0.463185,-5.3923 0.0026,-2.90052 0.0072,-5.80097 -0.01058,-8.70142 -0.0016,-2.16949 0.007,-4.33985 -0.07349,-6.50821 0,0 3.962781,-2.01914 3.962781,-2.01914 z"
       inkscape:connector-curvature="0" />
    <path
       style="opacity:1;fill:#000000;fill-opacity:1;stroke:#000000;stroke-width:0.02804583;stroke-linecap:round;stroke-linejoin:bevel;stroke-miterlimit:4;stroke-dasharray:none;stroke-dashoffset:0;stroke-opacity:1"
       id="path4519"
       d="m 77.842278,107.11543 c 1.32451,-0.10032 2.65194,-0.15386 3.979461,-0.19395 1.034846,-0.0252 2.069904,-0.0395 3.105025,-0.0459 1.205185,-0.0261 1.349894,-0.10786 1.800085,1.14532 0.0409,0.22033 0.09635,0.43845 0.122701,0.66098 0.135506,1.14455 0.113855,2.31824 0.122441,3.46752 0.0136,1.81996 0.01003,1.28581 0.0058,3.19026 0.0047,1.60399 -0.177271,3.22044 -0.765432,4.72586 -0.532209,1.36222 -1.401268,2.53982 -2.247424,3.7151 -2.344084,3.03055 -5.552908,5.12263 -9.102182,6.57796 -1.488689,0.46899 -3.052064,0.49115 -4.597532,0.51074 -0.199327,-5.3e-4 -0.398881,0.008 -0.597985,-0.002 -0.137507,-0.007 -0.787059,-0.0554 -0.935051,-0.16646 -0.224123,-0.16817 -0.390977,-0.68881 -0.07829,-0.90311 1.375753,-0.94286 2.879034,-1.68461 4.31855,-2.52691 2.494658,-0.68557 5.081561,-0.82851 7.65125,-0.96242 2.564783,-0.11805 5.132165,-0.14548 7.699128,-0.17005 1.01254,0.0461 3.237373,-0.24333 3.803534,0.91814 0.08641,0.17726 0.06635,0.38878 0.09952,0.58317 -0.105899,0.2363 -0.17527,0.49264 -0.317698,0.7089 -0.812575,1.2338 -2.590594,2.25788 -3.837117,3.01647 -2.567612,1.6441 -5.057963,3.07774 -8.036401,3.57513 -1.941867,0.0546 -3.884115,0.0888 -5.82666,0.10506 -0.932862,0.008 -1.865749,0.003 -2.79863,0.003 0,0 3.598085,-2.61179 3.598085,-2.61179 v 0 c 0.916106,0.008 1.832194,0.0179 2.748245,0.0309 1.933615,0.0166 3.877493,0.0463 5.800511,-0.18347 0.622207,-0.12125 1.226013,-0.26525 1.826556,-0.47243 1.429107,-0.49304 4.404217,-2.07367 -1.367459,1.11668 1.548754,-0.90474 3.128978,-1.84396 4.271161,-3.25889 0.01947,-0.10614 0.0944,-0.21668 0.05842,-0.31842 -0.30734,-0.86908 -2.870017,-0.62505 -3.53522,-0.65904 -2.532729,-0.0126 -5.066664,0.003 -7.596999,0.12401 -2.580489,0.1562 -5.227672,0.29916 -7.673128,1.20948 1.069953,-0.65029 2.170665,-1.25248 3.209861,-1.95088 0.101592,-0.0683 -0.243414,0.026 -0.36512,0.0391 -1.93e-4,0.0205 -0.01984,0.0545 -5.29e-4,0.0614 0.451991,0.16296 0.972905,0.0724 1.437381,0.10358 1.507519,-0.0176 3.033315,-0.076 4.458388,-0.62417 1.296699,-0.59972 2.845496,-1.34739 -2.034403,1.29661 -0.337161,0.18268 0.645322,-0.41579 0.951029,-0.64729 1.073568,-0.81297 2.019419,-1.77795 2.854878,-2.83175 0.845931,-1.13574 1.751783,-2.28509 2.31916,-3.59634 0.631328,-1.45902 0.856502,-3.0407 0.848718,-4.6189 -0.02966,-2.36235 0.0314,-4.75795 -0.363797,-7.09346 -0.06526,-0.18443 -0.12355,-0.48368 -0.309772,-0.61702 -0.310052,-0.222 -0.869243,0.0357 -1.212527,-0.059 -1.018736,-0.002 -2.037651,-0.003 -3.056088,0.0257 -1.338736,0.0408 -2.680944,0.0858 -4.009406,0.2678 0,0 3.575037,-2.66597 3.575037,-2.66597 z"
       inkscape:connector-curvature="0" />
    <path
       style="opacity:1;fill:#000000;fill-opacity:1;stroke:#000000;stroke-width:0.02804583;stroke-linecap:round;stroke-linejoin:bevel;stroke-miterlimit:4;stroke-dasharray:none;stroke-dashoffset:0;stroke-opacity:1"
       id="path4521"
       d="m 101.97097,107.993 c -1.23054,-0.0258 -2.461524,-0.0233 -3.692278,-0.024 -1.51498,0.006 -3.030188,-0.0783 -4.532662,0.14529 -0.697875,0.16418 -0.625517,0.10734 -1.287433,0.42939 -0.210542,0.10243 -0.820579,0.45135 -0.617164,0.33541 6.581489,-3.75144 3.606577,-2.32128 2.744689,-1.40063 -0.144174,0.15401 -0.256344,0.33512 -0.384513,0.50268 -0.713359,1.29735 -0.782371,2.79123 -0.848781,4.23734 -0.0576,1.83448 -0.03922,3.67055 -0.02487,5.50562 0.0053,1.64811 0.01797,3.29617 0.02424,4.94428 0.102917,0.75302 -0.234072,2.22566 0.226018,2.86336 0.06739,0.0934 0.176072,0.14852 0.264109,0.22279 1.604333,0.53959 3.387529,0.41591 5.061852,0.43726 2.638123,0.006 5.276273,-0.005 7.914403,-0.0121 2.1754,-0.0102 4.35078,-0.032 6.52622,-0.0288 0.85319,-0.003 1.70638,-0.007 2.55957,-0.0104 0.3478,-0.001 0.9873,0.0161 1.34814,-0.0548 0.16174,-0.0318 0.31177,-0.10714 0.46766,-0.16071 -6.58017,3.57869 -3.42586,2.64815 -2.95937,1.10269 0.19616,-0.64985 0.20872,-1.35483 0.24813,-2.02596 0.0521,-1.25202 0.0145,-2.50515 -0.003,-3.75744 0.0748,-1.34348 -0.7305,-2.38555 -1.58541,-3.33197 -1.66774,-1.60692 -3.72896,-2.74431 -5.66208,-4.00094 -1.26732,-0.783 -2.47178,-1.66057 -3.60558,-2.6258 -0.6582,-0.60045 -1.28864,-1.23494 -1.86967,-1.91101 -0.33733,-0.4625 -0.75309,-0.7808 -1.28913,-0.9668 0,0 3.70734,-2.47398 3.70734,-2.47398 v 0 c 0.55647,0.27123 1.01378,0.64926 1.38592,1.14906 0.56523,0.65846 1.17791,1.27685 1.81216,1.86827 1.102,0.96036 2.27234,1.83475 3.50066,2.62825 1.00448,0.6853 2.02011,1.35165 3.03546,2.02068 0.46416,0.30585 1.73467,1.13153 2.19278,1.50593 0.19632,0.16045 0.35589,0.36121 0.53384,0.54181 0.89807,1.01219 1.83078,2.15699 1.7802,3.5857 0.008,1.26561 0.01,2.53146 -0.0149,3.7969 -0.031,0.70742 -0.0579,1.41575 -0.17989,2.11508 -0.0269,0.15459 -0.14898,0.91374 -0.36138,1.05122 -1.35082,0.8743 -2.78628,1.61029 -4.17943,2.41543 -1.44136,0.23695 -2.9194,0.0264 -4.37284,0.0899 -2.15701,0.005 -4.314,-0.0119 -6.47102,-0.0101 -2.64464,0.008 -5.289256,0.0294 -7.933936,0.0195 -0.808162,-0.006 -1.60692,-0.006 -2.414434,-0.0357 -1.0121,-0.0377 -2.071849,-0.0274 -2.950575,-0.59841 -0.11747,-0.12555 -0.258593,-0.23256 -0.352412,-0.37664 -0.56593,-0.86915 -0.145245,-2.08771 -0.262088,-3.04319 0.0031,-1.65182 0.0096,-3.30366 7.94e-4,-4.95546 -0.0013,-1.83724 -0.01926,-3.6745 -0.0056,-5.51172 0.05093,-1.5087 0.128193,-3.04256 0.727125,-4.45151 1.248767,-2.03822 2.345759,-2.03511 5.095248,-3.60108 0.613447,-0.34939 1.303324,-0.55099 1.998462,-0.64793 1.515935,-0.15441 3.038716,-0.0768 4.560316,-0.0979 1.25284,-7.9e-4 2.50587,0.001 3.7585,-0.0241 0,0 -3.61328,2.6252 -3.61328,2.6252 z"
       inkscape:connector-curvature="0" />
    <path
       style="opacity:1;fill:#000000;fill-opacity:1;stroke:#000000;stroke-width:0.02804583;stroke-linecap:round;stroke-linejoin:bevel;stroke-miterlimit:4;stroke-dasharray:none;stroke-dashoffset:0;stroke-opacity:1"
       id="path4523"
       d="m 121.74602,109.67805 c 0.85732,-1.24641 1.71099,-2.4893 2.66614,-3.6636 1.94326,-2.05049 4.61192,-3.35849 7.11792,-4.55919 1.47248,-0.63328 3.0427,-0.92896 4.62742,-1.09428 1.03331,-0.009 2.13552,-0.275 3.148,-0.004 0.11438,0.11398 0.25875,0.20427 0.34313,0.34194 0.42737,0.69726 0.42928,1.70804 0.47565,2.48501 0.0651,1.09096 0.0535,1.61389 0.0638,2.75034 -0.0977,2.02288 0.31506,4.14972 -0.3269,6.11962 -0.35527,1.09017 -0.66821,1.37467 -1.32603,2.28295 -2.00079,2.00208 -4.51196,3.36453 -6.85696,4.91201 -1.62552,1.06687 -3.19076,2.21212 -4.49985,3.65574 -0.90131,1.0329 -1.48289,2.26232 -1.95802,3.53378 -0.0295,0.0986 -0.21373,0.55856 -0.13086,0.72852 0.15622,0.32044 2.06772,0.41764 2.29376,0.43606 2.63651,0.11067 5.27758,0.105 7.91612,0.10312 2.1738,-0.0144 4.34749,-0.041 6.52123,-0.0622 1.39943,-0.0113 2.7989,-0.003 4.19836,-0.001 0.6523,-0.002 1.30458,-0.006 1.95687,-0.008 0,0 -3.5647,2.58988 -3.5647,2.58988 v 0 c -0.64491,-0.002 -1.2898,-0.007 -1.93471,-0.008 -1.40012,0.002 -2.80022,0.01 -4.20034,0.004 -2.13296,-0.0126 -4.26595,-0.0238 -6.39895,-0.0266 -2.67354,0.009 -5.34904,0.0661 -8.02072,-0.0717 -0.79575,-0.0647 -2.27115,-0.0129 -2.71384,-0.90636 -0.15456,-0.31194 -10e-4,-0.62518 0.0806,-0.91828 0.49322,-1.30551 1.02772,-2.60195 1.9255,-3.69288 1.29066,-1.51572 2.86531,-2.70195 4.52661,-3.79064 2.33511,-1.55239 4.82983,-2.89914 6.92223,-4.78566 0.66142,-0.80905 1.02901,-1.12904 1.41519,-2.12405 0.74263,-1.91346 0.32736,-4.04279 0.39532,-6.03273 -0.0306,-0.82086 -0.0587,-1.85078 -0.12493,-2.68513 -0.0474,-0.59772 -0.0455,-1.59798 -0.40944,-2.13949 -0.0486,-0.0722 -0.14368,-0.0983 -0.21552,-0.14745 -1.00039,-0.11701 -2.02023,0.0205 -3.0202,0.0806 -1.56165,0.19266 -3.10671,0.52111 -4.5329,1.21204 -1.69826,0.85894 -0.99691,0.52093 2.48092,-1.5053 0.19393,-0.11298 -0.38818,0.22569 -0.57735,0.34648 -0.50586,0.32303 -0.60311,0.40159 -1.05166,0.79807 -0.1726,0.15257 -0.33885,0.31219 -0.50828,0.46829 -0.96737,1.13668 -1.86565,2.32684 -2.61819,3.61882 0,0 -4.08442,1.76012 -4.08442,1.76012 z"
       inkscape:connector-curvature="0" />
    <path
       style="opacity:1;fill:#000000;fill-opacity:1;stroke:#000000;stroke-width:0.02804583;stroke-linecap:round;stroke-linejoin:bevel;stroke-miterlimit:4;stroke-dasharray:none;stroke-dashoffset:0;stroke-opacity:1"
       id="path4525"
       d="m 25.12409,164.47121 c -0.06825,2.32643 -0.06009,4.65449 -0.07684,6.98172 -0.05533,3.42563 -0.02818,6.8519 6.88e-4,10.27764 0.04228,2.65905 -0.01064,5.31762 0.0077,7.97668 0.0119,1.61414 0.04507,3.22799 0.0642,4.84204 0.01221,0.80782 0.01939,1.61544 0.0015,2.42316 -0.0095,0.96869 0.0015,1.93741 0.0084,2.90607 -0.0088,0.9441 -0.01954,1.88826 -0.0212,2.83255 0,0 -3.914956,1.99477 -3.914956,1.99477 v 0 c -0.0016,-0.93709 -0.01234,-1.87405 -0.02119,-2.81095 0.0069,-0.9715 0.01789,-1.94307 0.0084,-2.91459 -0.01836,-0.80821 -0.01029,-1.61634 0.0015,-2.42464 0.01916,-1.63586 0.05218,-3.27152 0.0642,-4.90747 0.01828,-2.6617 -0.03442,-5.32289 0.0077,-7.98458 0.02863,-3.42597 0.05628,-6.85248 6.88e-4,-10.27834 -0.01668,-2.30113 -0.008,-4.60312 -0.07684,-6.90342 0,0 3.946097,-2.01064 3.946097,-2.01064 z"
       inkscape:connector-curvature="0" />
    <path
       style="opacity:1;fill:#000000;fill-opacity:1;stroke:#000000;stroke-width:0.02804583;stroke-linecap:round;stroke-linejoin:bevel;stroke-miterlimit:4;stroke-dasharray:none;stroke-dashoffset:0;stroke-opacity:1"
       id="path4527"
       d="m 26.097696,169.75516 c 2.556239,-0.98861 5.168375,-1.79976 7.830991,-2.44371 0.3619,-0.006 0.732348,-0.0974 1.085699,-0.0189 2.037919,0.45242 2.541289,3.9638 2.873111,5.58924 0.589333,3.18991 0.79217,6.43689 0.955492,9.67205 0.07813,1.76024 0.09354,3.52265 0.114213,5.28432 0.03019,0.63326 -7.94e-4,1.15554 -0.628338,1.52022 -4.119433,2.39372 -3.628345,2.4217 -7.017165,2.80815 -2.86666,0.22893 -5.744423,0.2547 -8.618557,0.28109 -1.601501,0.0129 -3.203041,0.019 -4.80459,0.0197 -2.279209,-0.0481 -3.089951,0.7237 2.644272,-2.61357 0.179175,-0.10428 0.414335,0.0157 0.621583,0.0208 0.333903,0.008 0.667887,0.0128 1.00183,0.0191 0.441316,0.005 0.884306,-0.0227 1.323948,0.0161 1.179159,0.10402 2.743332,0.42686 3.875596,0.69267 2.027357,0.47593 3.986945,1.10375 5.946786,1.80004 2.797394,1.05699 5.178028,2.40497 7.302881,4.50886 1.287785,1.44316 1.571667,2.80816 1.866868,4.6448 0.148092,1.07767 0.08161,0.5443 0.200377,1.59999 0,0 -3.876154,2.02678 -3.876154,2.02678 v 0 c -0.103703,-1.04568 -0.04392,-0.51755 -0.180385,-1.58427 -0.262689,-1.65006 -0.545507,-3.13258 -1.707764,-4.42329 -0.64652,-0.66148 -0.791935,-0.85156 -1.549302,-1.44264 -1.659162,-1.29489 -3.558013,-2.23 -5.508606,-2.99801 -3.593509,-1.27852 -7.341108,-2.43862 -11.198435,-2.29497 -0.351614,0.007 -0.703267,0.0112 -1.054843,0.0196 -0.226192,0.005 -0.841172,0.17879 -0.678423,0.0216 2.778913,-2.68378 2.288263,-2.6505 4.538159,-2.60403 1.570215,0.0135 3.140333,0.0389 4.710617,0.0438 2.859512,-7.9e-4 5.726913,-0.0107 8.573353,-0.31533 0.438833,-0.0661 0.881007,-0.11293 1.316501,-0.19832 0.370234,-0.0726 1.384414,-0.52055 1.097912,-0.27507 -0.871368,0.74661 -1.968063,1.18312 -2.914663,1.83171 -0.177993,0.12196 0.429977,-0.11113 0.599088,-0.24513 0.248666,-0.19703 0.186018,-0.63763 0.190677,-0.88133 0.0324,-1.77487 0.04441,-3.55 0.0051,-5.32495 -0.08617,-3.22506 -0.252798,-6.46094 -0.874008,-9.63436 -0.282771,-1.32164 -0.702011,-3.84375 -1.885098,-4.72419 -0.613675,-0.45668 -1.041345,-0.28506 -1.756836,-0.23987 -2.692387,0.64939 -5.320743,1.50791 -7.889783,2.54519 0,0 3.467866,-2.70394 3.467866,-2.70394 z"
       inkscape:connector-curvature="0" />
    <path
       style="opacity:1;fill:#000000;fill-opacity:1;stroke:#000000;stroke-width:0.02804583;stroke-linecap:round;stroke-linejoin:bevel;stroke-miterlimit:4;stroke-dasharray:none;stroke-dashoffset:0;stroke-opacity:1"
       id="path4529"
       d="m 53.204517,183.24132 c 2.04733,0.057 4.09575,0.0497 6.143662,0.0471 1.075071,-0.0708 2.185172,0.15949 3.235375,-0.17973 0.277122,-0.0895 1.037437,-0.52968 0.78001,-0.39352 -3.374453,1.78486 -3.809357,2.56245 -2.645029,0.99504 0.304578,-0.69328 0.71977,-1.48738 0.552331,-2.28035 -0.199856,-0.94648 -0.977127,-1.54105 -1.666272,-2.12432 -0.813625,-0.50985 -1.631622,-1.10069 -2.548805,-1.42015 -1.068168,-0.37204 -2.227733,-0.48189 -3.34209,-0.61982 -0.992904,-0.021 -2.057987,-0.25547 -3.053651,-0.15985 -0.146516,0.0141 -0.286184,0.069 -0.429273,0.10346 1.143323,-0.56901 2.286645,-1.13802 3.429968,-1.70703 -0.654068,1.24603 -0.782733,2.6734 -0.870185,4.05627 -0.06266,1.30536 -0.03399,2.61227 -0.04049,3.91846 -0.0084,1.12796 0.0044,2.25593 0.0024,3.38388 -5.29e-4,0.31118 -0.0305,0.62341 -0.0049,0.93354 0.03216,0.38932 0.118456,0.77225 0.177686,1.15838 0.510188,1.8064 1.414801,3.52975 3.037792,4.57026 0.28874,0.18511 0.606851,0.31981 0.910278,0.47972 1.735992,0.72366 3.585591,1.05383 5.447697,1.22693 0.89521,0.11004 1.786625,0.20691 2.666796,0.40585 0,0 -3.649461,2.53029 -3.649461,2.53029 v 0 c -0.854036,-0.19028 -1.724454,-0.27648 -2.590036,-0.39891 -1.883055,-0.23332 -3.755567,-0.62085 -5.496705,-1.39969 -0.319582,-0.17993 -0.656204,-0.33247 -0.958744,-0.53978 -1.666997,-1.14223 -2.586083,-2.97404 -3.164187,-4.85275 -0.08514,-0.40188 -0.205224,-0.79793 -0.255418,-1.20565 -0.03776,-0.30672 -0.0056,-0.61805 -0.0071,-0.92709 -0.0056,-1.12499 0.0011,-2.25006 -0.01712,-3.37498 -0.01879,-1.30956 -0.0314,-2.6204 -0.0024,-3.92969 0.08876,-1.45218 0.293086,-2.90966 0.771779,-4.289 1.386387,-0.89889 2.736159,-1.85694 4.159165,-2.69666 0.10854,-0.064 0.965126,-0.006 1.02177,-0.003 0.816153,0.0463 1.630657,0.12067 2.44138,0.22592 1.149844,0.1693 2.350658,0.30626 3.447711,0.71451 0.935998,0.3483 1.760844,0.99556 2.593123,1.52506 0.773925,0.67736 1.602158,1.37373 1.879647,2.4228 0.227717,0.8609 -0.174505,1.72829 -0.443457,2.51791 -1.245672,2.17589 -0.35673,0.8945 -4.77416,3.46121 -1.207416,0.70156 -2.767277,0.30308 -4.073972,0.39934 -2.091156,-0.003 -4.182743,-0.008 -6.273353,0.0471 0,0 3.608226,-2.62153 3.608226,-2.62153 z"
       inkscape:connector-curvature="0" />
    <path
       style="opacity:1;fill:#000000;fill-opacity:1;stroke:#000000;stroke-width:0.02804583;stroke-linecap:round;stroke-linejoin:bevel;stroke-miterlimit:4;stroke-dasharray:none;stroke-dashoffset:0;stroke-opacity:1"
       id="path4531"
       d="m 80.924563,173.5375 c -1.375137,-0.0329 -2.750878,-0.0301 -4.126315,-0.0257 -0.678862,0.0336 -1.371189,-0.0985 -2.028089,0.14169 -0.200171,0.0732 -0.751893,0.40175 -0.564827,0.29963 3.457339,-1.88738 3.974354,-2.64833 2.632316,-1.08093 -1.31145,2.06498 -1.366827,4.58861 -1.503157,6.95935 -0.242887,2.92273 0.735264,4.93008 2.446592,7.20144 1.419405,1.55038 2.948987,2.99404 4.421418,4.49357 1.191691,1.17922 1.757904,2.66823 2.128662,4.26661 0.319686,1.55785 0.306274,3.15278 0.307928,4.73516 -0.104376,0.95118 0.141327,2.35693 -0.0878,3.26345 -0.117329,0.4642 -0.311261,0.91257 -0.554056,1.32525 -0.664689,1.12978 -1.196938,1.45023 -2.171893,2.29581 -0.447328,0.27883 -0.880427,0.5819 -1.34198,0.83649 -1.667309,0.91968 -3.327833,1.85605 -5.042087,2.68493 -0.434166,0.20993 -0.916975,0.30116 -1.383808,0.42214 -1.208204,0.31313 -2.437072,0.4632 -3.675343,0.58432 -1.037646,0.0888 -2.078808,0.10943 -3.11957,0.11693 0,0 3.57232,-2.59467 3.57232,-2.59467 v 0 c 1.00476,0.0105 2.010261,-0.005 3.011842,-0.0947 1.20986,-0.13351 2.40407,-0.2884 3.57964,-0.62169 0.454221,-0.12878 1.654921,-0.80134 1.344427,-0.44568 -0.587618,0.67311 -1.541528,0.915 -2.240288,1.47186 -0.410157,0.32687 0.912154,-0.51793 1.368232,-0.77689 1.127549,-0.88647 2.375265,-1.80773 2.798212,-3.2719 0.243682,-0.84357 -0.02096,-2.31719 0.0644,-3.21677 -0.01781,-1.55038 -0.01315,-3.11119 -0.281418,-4.6436 -0.338426,-1.56942 -0.857211,-2.89199 -1.996287,-4.066 -1.463402,-1.52867 -2.986905,-2.99949 -4.402082,-4.57262 -1.662557,-2.29153 -2.823001,-4.55377 -2.570038,-7.4732 0.10083,-1.74067 0.162541,-3.66628 0.576554,-5.36281 0.182946,-0.74968 0.409911,-1.11369 0.747577,-1.79138 0.163102,-0.24984 0.24483,-0.57849 0.48931,-0.74953 1.382527,-0.96723 2.865212,-1.78424 4.329835,-2.62198 0.192077,-0.10987 0.41248,-0.16555 0.62838,-0.21403 0.67687,-0.15201 1.373579,-0.0453 2.057691,-0.0741 1.399,0.005 2.798265,0.006 4.196982,-0.0257 0,0 -3.613277,2.6252 -3.613277,2.6252 z"
       inkscape:connector-curvature="0" />
    <path
       style="opacity:1;fill:#000000;fill-opacity:1;stroke:#000000;stroke-width:0.02804583;stroke-linecap:round;stroke-linejoin:bevel;stroke-miterlimit:4;stroke-dasharray:none;stroke-dashoffset:0;stroke-opacity:1"
       id="path4537"
       d="m 91.355263,192.86069 c 1.147239,0.0377 2.3225,0.0517 3.429365,-0.30274 0.247344,-0.0792 0.48186,-0.19398 0.722787,-0.29096 -5.716461,3.32129 -2.960794,1.91488 -1.991763,0.58126 0.506617,-0.69722 0.79896,-1.48423 1.098146,-2.28306 0.418658,-1.6518 1.279376,-3.62633 0.684119,-5.33568 -0.08025,-0.23044 -0.228576,-0.43118 -0.342865,-0.64677 -0.14977,-0.15277 -0.277209,-0.33123 -0.449313,-0.45832 -0.826918,-0.61064 -2.00339,-0.67275 -2.986402,-0.72672 -0.497311,0.0352 -1.021406,-0.0721 -1.516968,0.004 -0.126793,0.0195 -0.252637,0.0587 -0.36627,0.11819 -0.111676,0.0585 -0.410843,0.29027 -0.299673,0.23079 1.166358,-0.62402 2.312893,-1.28441 3.469341,-1.92662 -0.714277,0.84748 -1.194683,1.85794 -1.523121,2.90932 -0.298818,1.24575 -0.311441,2.53615 -0.331632,3.81046 -0.04375,1.85487 -0.04298,3.71008 -0.02061,5.56535 0.02043,1.16504 0.03606,2.33013 0.03653,3.49536 -0.04184,0.87989 0.11961,1.38037 0.946116,1.73368 0.705339,0.19844 1.451697,0.16635 2.177981,0.16534 1.247402,0.0102 2.494833,0.006 3.742306,-0.006 0.985787,-0.007 1.97162,-0.0101 2.957423,-0.0151 0.85768,0.10467 1.20316,-0.25432 1.93012,-0.5784 0.10338,-0.0363 0.20676,-0.0727 0.31015,-0.10904 0,0 -3.5026,2.75092 -3.5026,2.75092 v 0 c -0.09757,0.0426 -0.19513,0.0853 -0.292695,0.12793 -0.691724,0.32988 -1.255649,0.50139 -2.036808,0.41848 -0.975624,-0.004 -1.951236,-0.005 -2.92686,-0.005 -1.258695,-0.003 -2.517243,0.006 -3.775676,0.0237 -0.777758,-0.0135 -1.585283,0.005 -2.305457,-0.33112 -0.811737,-0.48375 -1.250286,-1.19446 -1.165826,-2.16642 -7.94e-4,-1.1757 0.01188,-2.35131 0.0268,-3.5269 0.01461,-1.85015 2.38e-4,-3.7 -0.02648,-5.54968 0.01805,-1.30745 0.05276,-2.61995 0.267044,-3.91276 0.310608,-1.10818 0.785149,-2.13507 1.419622,-3.09837 3.76373,-2.35709 3.224678,-2.8771 6.396363,-2.6932 1.371489,0.13881 2.771582,0.40937 3.644614,1.58296 0.125638,0.25343 0.287052,0.49208 0.37691,0.7603 0.606848,1.81135 -0.180176,3.78102 -0.577467,5.54714 -1.28389,3.9116 -2.355061,3.93889 -6.492271,6.23575 -1.473708,0.47348 -2.78184,0.54286 -4.318252,0.52712 0,0 3.613277,-2.6252 3.613277,-2.6252 z"
       inkscape:connector-curvature="0" />
    <path
       style="opacity:1;fill:#000000;fill-opacity:1;stroke:#000000;stroke-width:0.02804583;stroke-linecap:round;stroke-linejoin:bevel;stroke-miterlimit:4;stroke-dasharray:none;stroke-dashoffset:0;stroke-opacity:1"
       id="path4539"
       d="m 104.21233,176.01016 c -0.096,2.33577 -0.0863,4.67518 -0.0822,7.0126 -0.02,2.90706 -0.0101,5.81421 -0.002,8.7213 -0.0142,2.25257 0.0205,4.50495 0.0424,6.75733 0.0595,2.12202 0.52267,1.27125 -3.94013,2.66767 -0.19372,0.0606 0.0231,-0.40532 0.0315,-0.60813 0.0515,-1.24494 0.0431,-1.26498 0.0676,-2.62086 0.0265,-3.03236 0.0105,-6.06497 -0.0124,-9.0973 0.0518,-1.56612 -0.23766,-3.17067 0.20108,-4.6971 0.26092,-0.6108 0.58917,-1.24357 1.18962,-1.58748 4.20268,-2.40712 2.69062,-2.05396 4.80452,-2.46627 1.16215,-0.17236 2.33942,-0.16596 3.51114,-0.15863 1.62777,0.009 3.2555,0.0248 4.88329,0.0312 1.79822,0.0139 3.59652,0.003 5.39471,-0.0104 0.20797,-0.001 0.41594,-0.002 0.62391,-0.003 0,0 -3.56164,2.58762 -3.56164,2.58762 v 0 c -0.20519,-0.001 -0.41039,-0.002 -0.61558,-0.003 -1.78524,-0.0141 -3.57056,-0.0268 -5.35587,-0.0188 -1.64177,-2.7e-4 -3.28354,0.002 -4.9253,0.002 -1.1564,0.0138 -2.32583,0.004 -3.46085,0.25645 -1.7763,0.56405 -0.44612,0.18396 2.82711,-1.81308 0.13939,-0.085 -0.30587,0.12031 -0.44323,0.20861 -0.28582,0.18374 -0.44149,0.40198 -0.62437,0.68164 -0.0887,0.13565 -0.1638,0.27973 -0.2457,0.41959 -0.60282,1.45578 -0.28404,3.09158 -0.3863,4.62614 -0.0228,3.03656 -0.039,6.07338 -0.0124,9.10996 0.0241,1.31196 0.0158,1.35276 0.0676,2.55201 0.008,0.19213 0.18854,0.46515 0.0314,0.57608 -4.624696,3.26572 -3.98542,3.50211 -3.94013,1.34752 0.0218,-2.26679 0.0564,-4.53357 0.0424,-6.80054 0.008,-2.90645 0.0181,-5.81296 -0.002,-8.71938 0.004,-2.30946 0.0152,-4.62109 -0.0822,-6.92883 0,0 3.9739,-2.0248 3.9739,-2.0248 z"
       inkscape:connector-curvature="0" />
    <path
       style="opacity:1;fill:#000000;fill-opacity:1;stroke:#000000;stroke-width:0.02804583;stroke-linecap:round;stroke-linejoin:bevel;stroke-miterlimit:4;stroke-dasharray:none;stroke-dashoffset:0;stroke-opacity:1"
       id="path4541"
       d="m 112.3444,188.80984 c 0.21407,1.92759 0.74827,3.80506 1.31564,5.65416 0.6967,2.17324 1.68121,4.24322 2.76788,6.24581 0.49128,0.981 1.09097,1.87011 2.05215,2.42482 0.57167,0.26696 1.20361,0.26263 1.82087,0.27188 0.9857,0.002 1.97134,0.005 2.95704,1.2e-4 1.56851,-0.40091 1.75234,-0.49708 -2.63325,1.60871 -0.24292,0.11664 0.43015,-0.32738 0.62096,-0.51767 0.6749,-0.67304 1.14165,-1.51831 1.62068,-2.33079 0.92979,-1.64727 1.74419,-3.35242 2.43106,-5.1139 0.48924,-1.3502 0.75552,-2.76151 1.07152,-4.1578 0.0328,-0.15384 0.0656,-0.30769 0.0983,-0.46153 0,0 3.9867,-1.92442 3.9867,-1.92442 v 0 c -0.0354,0.15792 -0.0707,0.31583 -0.10609,0.47375 -0.34968,1.41499 -0.64045,2.84476 -1.08897,4.2338 -0.69596,1.78206 -1.5083,3.50824 -2.43053,5.1858 -1.60694,2.85023 -3.29034,5.11909 -7.13562,5.59654 -0.99982,0.003 -1.99973,0.027 -2.99943,0.0117 -0.6826,-0.031 -1.35798,-0.0995 -1.95277,-0.47056 -0.96702,-0.66837 -1.589,-1.61421 -2.0855,-2.67271 -0.49927,-0.98631 -0.95953,-1.98487 -1.41682,-2.99132 -0.23001,-0.50625 -0.87286,-1.88975 -1.08001,-2.42189 -0.11584,-0.29757 -0.19996,-0.60654 -0.29994,-0.90981 -0.56449,-1.87554 -1.07843,-3.76839 -1.44424,-5.69394 0,0 3.93033,-2.04076 3.93033,-2.04076 z"
       inkscape:connector-curvature="0" />
    <path
       style="opacity:1;fill:#000000;fill-opacity:1;stroke:#000000;stroke-width:0.02804583;stroke-linecap:round;stroke-linejoin:bevel;stroke-miterlimit:4;stroke-dasharray:none;stroke-dashoffset:0;stroke-opacity:1"
       id="path4543"
       d="m 139.26098,201.88608 c 1.80038,0.0417 3.60159,0.0355 5.40235,0.0314 0.82695,-0.0492 1.67039,0.0701 2.49398,-0.0566 1.38728,-0.21335 4.70302,-2.39923 -2.34639,1.53247 0.80873,-0.62527 0.80883,-1.66721 0.85795,-2.60515 -0.057,-0.957 0.17861,-1.98959 -0.0873,-2.92226 -1.2742,-0.65966 -2.83923,-0.58063 -4.23484,-0.62292 -1.74211,-0.0311 -3.48447,-0.009 -5.22644,0.0185 -0.68468,0.0967 -1.53124,-0.1924 -2.13405,0.2154 1.22228,-0.69288 2.43916,-1.39538 3.66684,-2.07863 0.0206,-0.0115 -0.13541,0.0348 -0.24312,0.28994 -0.11276,0.2671 -0.11342,0.57803 -0.13374,0.86085 -0.0282,1.00005 -0.0214,2.00079 -0.0261,3.00117 -0.002,0.86786 0.003,1.73571 0.008,2.60355 0.001,0.18703 -0.0223,0.37598 0.005,0.56107 0.024,0.16576 0.0977,0.32042 0.14655,0.48062 0.61959,1.13043 1.82231,1.4174 3.00161,1.60657 1.1641,0.1426 2.33872,0.12765 3.50911,0.12014 1.28382,-0.0545 2.51882,0.37433 3.74362,0.70142 1.10932,0.27118 0.56391,0.14451 1.6359,0.38143 0,0 -3.59267,2.48826 -3.59267,2.48826 v 0 c -1.06576,-0.25419 -0.5217,-0.12212 -1.63205,-0.39679 -1.22503,-0.29811 -2.45525,-0.64918 -3.72977,-0.57593 -1.18069,-0.003 -2.36715,-0.0118 -3.53587,-0.19963 -1.38019,-0.28065 -2.53809,-0.69742 -3.26365,-1.99805 -0.0713,-0.20149 -0.17601,-0.39413 -0.2139,-0.60448 -0.0334,-0.18531 0.003,-0.37658 0.003,-0.56486 0.003,-0.86828 0.005,-1.73659 -0.004,-2.60484 -0.0126,-0.99924 -0.0315,-1.99859 -0.0256,-2.99793 0.0361,-2.52957 0.82827,-2.14726 4.19589,-3.83175 0.7201,-0.11734 1.45737,-0.0219 2.18341,-0.051 1.71775,0.007 3.43566,0.0129 5.153,0.0537 1.20339,0.0338 3.11302,-0.0572 4.19622,0.6136 0.16872,0.10448 0.29625,0.26414 0.44438,0.39621 0.0457,0.14153 0.114,0.27767 0.13714,0.4246 0.0233,0.14811 5.2e-4,0.29988 5.2e-4,0.44983 1.6e-4,0.73222 0.0106,1.46453 -0.006,2.19666 -0.0411,1.01655 -7.9e-4,2.14101 -0.67895,2.96849 -1.39462,0.81347 -2.77068,1.65965 -4.18388,2.44042 -0.88121,0.48685 -2.62189,0.1715 -3.59647,0.2574 -1.82953,-0.004 -3.65945,-0.009 -5.48863,0.0314 0,0 3.59813,-2.6142 3.59813,-2.6142 z"
       inkscape:connector-curvature="0" />
    <path
       style="opacity:1;fill:#000000;fill-opacity:1;stroke:#000000;stroke-width:0.02804583;stroke-linecap:round;stroke-linejoin:bevel;stroke-miterlimit:4;stroke-dasharray:none;stroke-dashoffset:0;stroke-opacity:1"
       id="path4545"
       d="m 155.62568,189.23933 c -0.0744,2.14629 -0.0772,4.29469 -0.0895,6.44208 -0.0499,3.3662 -0.0276,6.73282 -1.1e-4,10.09909 0.004,0.46785 0.006,1.71442 0.0368,2.25666 0.0957,1.70366 1.93427,0.68988 -3.90404,1.84387 -0.23771,0.047 0.0126,-0.48445 0.0162,-0.72673 0.004,-0.27096 0.005,-0.54196 0.007,-0.81294 0.0202,-1.81415 0.0113,-3.6283 2.6e-4,-5.44247 0.0626,-1.18198 -0.14025,-2.40506 0.0951,-3.57668 0.0461,-0.22944 0.12869,-0.45001 0.19304,-0.67501 1.02086,-2.28085 3.29703,-3.59541 5.27349,-4.96376 2.42474,-1.57752 4.94958,-3.02774 7.50978,-4.36639 1.11918,-0.58518 2.5468,-0.86269 3.77114,-1.14104 0.82968,-0.18748 1.672,-0.29666 2.51615,-0.38992 0,0 -3.52611,2.62193 -3.52611,2.62193 v 0 c -0.8086,0.0903 -1.6157,0.19449 -2.41027,0.37549 -0.99097,0.24015 -1.4281,0.31796 -2.40568,0.67583 -0.43156,0.15799 -1.62928,0.81899 -1.27362,0.52794 0.72522,-0.59346 1.61545,-0.95096 2.4058,-1.45443 0.87384,-0.55665 -3.70812,2.17289 -2.66024,1.60756 -1.9088,1.30368 -4.07745,2.55239 -5.22488,4.63659 -0.0744,0.2003 -0.16888,0.39424 -0.22313,0.6009 -0.30115,1.14725 -0.0622,2.37226 -0.148,3.5376 -0.0109,1.81406 -0.0199,3.62812 2.7e-4,5.44216 0.002,0.26859 0.003,0.5372 0.007,0.80577 0.004,0.23677 0.1992,0.5599 0.0162,0.7102 -5.76012,4.73132 -3.99752,3.89476 -3.90404,2.13455 0.0303,-0.56998 0.0326,-1.78829 0.0368,-2.29415 0.0273,-3.36623 0.0501,-6.73283 -1e-4,-10.09898 -0.0121,-2.11699 -0.0142,-4.23507 -0.0895,-6.35092 0,0 3.9739,-2.0248 3.9739,-2.0248 z"
       inkscape:connector-curvature="0" />
    <path
       style="opacity:1;fill:#000000;fill-opacity:1;stroke:#000000;stroke-width:0.02804583;stroke-linecap:round;stroke-linejoin:bevel;stroke-miterlimit:4;stroke-dasharray:none;stroke-dashoffset:0;stroke-opacity:1"
       id="path4547"
       d="m 168.68468,201.49732 c -1.12739,-0.02 -2.25507,-0.0171 -3.3826,-0.0174 -0.99534,0.0438 -2.00234,-0.0655 -2.99186,0.0613 -1.73191,0.92897 2.10846,-1.23779 3.19641,-1.79375 0.13536,-0.0692 -0.23265,0.2015 -0.31667,0.32819 -0.11494,0.17334 -0.19918,0.36661 -0.27304,0.56104 -0.18568,0.48886 -0.24948,0.92437 -0.35109,1.43512 -0.20123,1.17534 -0.22948,2.36781 -0.24415,3.55691 -0.004,1.00878 -0.003,2.01756 -0.004,3.02635 0.0227,0.64302 -0.0181,1.28956 0.0179,1.93222 0.005,0.0937 -0.0433,0.22229 0.0309,0.27977 0.10084,0.0781 0.25381,0.0262 0.38071,0.0392 1.22365,0.19812 2.49643,0.46134 3.72216,0.1238 0.91133,-0.25097 1.23099,-0.52637 2.03426,-1.01752 -0.9146,0.47415 -1.76462,1.10228 -2.7438,1.42246 -0.36928,0.12075 0.57782,-0.52066 0.8459,-0.80188 1.08424,-1.13736 1.79399,-2.46686 2.49311,-3.85781 0.62374,-1.31685 1.055,-2.71004 1.25696,-4.15165 0.0798,-0.6632 0.0698,-1.33189 0.0615,-1.99839 -0.0221,-1.75636 -0.5661,-1.20563 3.95042,-2.04768 0.28664,-0.0534 -0.029,0.58248 -0.0374,0.87395 -0.0189,0.65452 -0.0244,1.66161 -0.0302,2.30358 -0.003,1.57808 -0.0314,3.1608 0.0888,4.7361 0.0281,0.36867 -0.0137,0.75648 0.11439,1.10331 0.12667,0.34285 0.41723,0.60025 0.62585,0.90037 1.65511,1.5151 3.78204,2.09159 5.95032,2.37702 1.22544,0.12734 2.4584,0.10337 3.68774,0.0705 0.46753,-0.0146 0.93515,-0.0244 1.40284,-0.0317 0,0 -3.60021,2.62397 -3.60021,2.62397 v 0 c -0.46192,0.007 -0.92381,0.0149 -1.38576,0.0201 -1.22452,0.008 -2.45302,-0.007 -3.66831,-0.17429 -2.24496,-0.38116 -4.41284,-1.0925 -6.094,-2.705 -0.24726,-0.35995 -0.58116,-0.67378 -0.74178,-1.07986 -0.13898,-0.35139 -0.1008,-0.74938 -0.13073,-1.12608 -0.12586,-1.58378 -0.055,-3.17633 -0.0808,-4.7625 -0.004,-0.60163 -0.009,-1.65844 -0.0244,-2.27695 -0.007,-0.28086 -0.24738,-0.66229 -0.0316,-0.84225 1.19549,-0.99716 2.62822,-1.67113 3.97696,-2.44858 0.13204,-0.0761 -0.27194,0.72926 -0.003,0.45724 0.009,0.6908 0.0214,1.38384 -0.058,2.07156 -0.2081,1.50228 -0.67156,2.94776 -1.298,4.32862 -0.51994,1.04147 -1.00676,2.1087 -1.69107,3.05699 -1.61062,2.23193 -3.61013,3.27819 -6.18303,4.6653 -0.35298,0.18613 -0.69055,0.40501 -1.05895,0.55839 -1.61328,0.67168 -3.37086,0.45802 -5.02376,0.0729 -0.21803,-0.13776 -0.47816,-0.22471 -0.65408,-0.4133 -0.0639,-0.0685 -0.0365,-0.68741 -0.0361,-0.72846 0.005,-0.51663 0.005,-1.03331 0.005,-1.54995 -0.007,-1.00814 -0.0209,-2.01624 -0.0164,-3.02441 0.0179,-1.21847 0.0801,-2.43973 0.25807,-3.64624 0.50577,-3.01298 1.0933,-4.28343 5.24602,-5.08408 0.99458,-0.0419 1.99044,-0.004 2.98561,-0.0106 1.14352,-2.7e-4 2.28718,0.002 3.43057,-0.0174 0,0 -3.60822,2.62153 -3.60822,2.62153 z"
       inkscape:connector-curvature="0" />
    <path
       style="opacity:1;fill:#000000;fill-opacity:1;stroke:#000000;stroke-width:0.02804583;stroke-linecap:round;stroke-linejoin:bevel;stroke-miterlimit:4;stroke-dasharray:none;stroke-dashoffset:0;stroke-opacity:1"
       id="path4549"
       d="m 195.3104,191.68201 c -0.0938,2.7342 -0.10572,5.47089 -0.128,8.20644 -0.0279,3.60429 0.008,7.20854 0.0471,10.81257 0.0122,0.9344 0.0303,1.86871 0.0479,2.80302 0.0118,0.62811 -0.0993,0.80782 0.34673,1.24654 1.46324,0.4953 3.06885,0.4192 4.59673,0.43134 0.29841,-0.001 0.59682,-0.002 0.89523,-0.003 0,0 -3.52335,2.55936 -3.52335,2.55936 v 0 c -0.29756,-0.002 -0.59512,-0.003 -0.89268,-0.004 -1.25909,-0.0176 -3.14649,0.0591 -4.31987,-0.38929 -0.19555,-0.0747 -0.36705,-0.20145 -0.55057,-0.30217 -0.11484,-0.14287 -0.26307,-0.26441 -0.34452,-0.42863 -0.17487,-0.35261 -0.11699,-0.75035 -0.11013,-1.12153 0.0176,-0.95059 0.0357,-1.90118 0.0479,-2.85186 0.0392,-3.62004 0.075,-7.2403 0.0471,-10.86059 -0.0221,-2.69207 -0.0331,-5.38535 -0.128,-8.076 0,0 3.96834,-2.02197 3.96834,-2.02197 z"
       inkscape:connector-curvature="0" />
    <path
       style="opacity:1;fill:#000000;fill-opacity:1;stroke:#000000;stroke-width:0.02804583;stroke-linecap:round;stroke-linejoin:bevel;stroke-miterlimit:4;stroke-dasharray:none;stroke-dashoffset:0;stroke-opacity:1"
       id="path4551"
       d="m 187.6677,203.69006 c 1.98226,0.0545 3.96568,0.0428 5.94844,0.0317 1.72103,-0.005 3.44203,-0.0222 5.1629,0.004 1.72273,0.0125 3.44538,-0.0108 5.16801,-0.0257 0.54706,-0.005 1.09413,-0.009 1.64121,-0.0111 0,0 -3.60024,2.61573 -3.60024,2.61573 v 0 c -0.53686,-0.003 -1.07371,-0.006 -1.61055,-0.0111 -1.69904,-0.0151 -3.3981,-0.0385 -5.09725,-0.0257 -1.72489,0.0256 -3.44988,0.0107 -5.17491,0.004 -2.01188,-0.0114 -4.02433,-0.0214 -6.03574,0.0317 0,0 3.59813,-2.61419 3.59813,-2.61419 z"
       inkscape:connector-curvature="0" />
  </g>
</svg>
