<?xml version="1.0" encoding="UTF-8" standalone="no"?>
<!-- Created with Inkscape (http://www.inkscape.org/) -->

<svg
   xmlns:dc="http://purl.org/dc/elements/1.1/"
   xmlns:cc="http://creativecommons.org/ns#"
   xmlns:rdf="http://www.w3.org/1999/02/22-rdf-syntax-ns#"
   xmlns:svg="http://www.w3.org/2000/svg"
   xmlns="http://www.w3.org/2000/svg"
   xmlns:sodipodi="http://sodipodi.sourceforge.net/DTD/sodipodi-0.dtd"
   xmlns:inkscape="http://www.inkscape.org/namespaces/inkscape"
   width="68.520035mm"
   height="13.893781mm"
   viewBox="0 0 68.520035 13.893781"
   version="1.1"
   id="svg8"
   inkscape:version="0.92.1 r15371"
   sodipodi:docname="drawing.svg">
  <defs
     id="defs2" />
  <sodipodi:namedview
     id="base"
     pagecolor="#ffffff"
     bordercolor="#666666"
     borderopacity="1.0"
     inkscape:pageopacity="0.0"
     inkscape:pageshadow="2"
     inkscape:zoom="3.94"
     inkscape:cx="118.07238"
     inkscape:cy="50.036871"
     inkscape:document-units="mm"
     inkscape:current-layer="layer2"
     showgrid="false"
     inkscape:window-width="1920"
     inkscape:window-height="1056"
     inkscape:window-x="0"
     inkscape:window-y="24"
     inkscape:window-maximized="1"
     fit-margin-top="0"
     fit-margin-left="0"
     fit-margin-right="0"
     fit-margin-bottom="0" />
  <metadata
     id="metadata5">
    <rdf:RDF>
      <cc:Work
         rdf:about="">
        <dc:format>image/svg+xml</dc:format>
        <dc:type
           rdf:resource="http://purl.org/dc/dcmitype/StillImage" />
        <dc:title></dc:title>
      </cc:Work>
    </rdf:RDF>
  </metadata>
  <g
     inkscape:groupmode="layer"
     id="layer2"
     inkscape:label="Layer 2"
     style="display:inline"
     transform="translate(-39.269623,-6.6314979)">
    <ellipse
       style="fill:#93ac9d;stroke-width:0.26458332"
       id="path3757"
       cx="73.52964"
       cy="17.601593"
       rx="34.260017"
       ry="1.1871108" />
  </g>
  <g
     inkscape:label="Layer 1"
     inkscape:groupmode="layer"
     id="layer1"
     style="display:inline"
     transform="translate(-39.269623,-6.6314979)">
    <flowRoot
       xml:space="preserve"
       id="flowRoot3680"
       style="font-style:normal;font-weight:normal;font-size:40px;line-height:1.25;font-family:sans-serif;letter-spacing:0px;word-spacing:0px;fill:#000000;fill-opacity:1;stroke:none"
       transform="scale(0.26458333)"><flowRegion
         id="flowRegion3682"><rect
           id="rect3684"
           width="705.71429"
           height="198.57143"
           x="59.285713"
           y="39.66254" /></flowRegion><flowPara
         id="flowPara3686" /></flowRoot>    <flowRoot
       xml:space="preserve"
       id="flowRoot3688"
       style="font-style:normal;font-weight:normal;font-size:40px;line-height:1.25;font-family:sans-serif;letter-spacing:0px;word-spacing:0px;fill:#000000;fill-opacity:1;stroke:none"
       transform="scale(0.26458333)"><flowRegion
         id="flowRegion3690"><rect
           id="rect3692"
           width="210.71428"
           height="197.85715"
           x="303.57144"
           y="38.233971" /></flowRegion><flowPara
         id="flowPara3694" /></flowRoot>    <g
       aria-label="DispoMaso"
       transform="matrix(0.26458333,0,0,0.26458333,2.1489002,-2.2832064)"
       style="font-style:normal;font-weight:normal;font-size:40px;line-height:1.25;font-family:sans-serif;letter-spacing:0px;word-spacing:0px;fill:#000000;fill-opacity:1;stroke:none"
       id="flowRoot3723">
      <path
         d="m 146.12565,39.656913 v 30.234376 h 6.35416 q 8.04688,0 11.77084,-3.645834 3.75,-3.645833 3.75,-11.510417 0,-7.8125 -3.75,-11.432292 -3.72396,-3.645833 -11.77084,-3.645833 z m -5.26042,-4.322917 h 10.80729 q 11.30209,0 16.58855,4.713542 5.28645,4.6875 5.28645,14.6875 0,10.052084 -5.3125,14.765626 -5.3125,4.713542 -16.5625,4.713542 h -10.80729 z"
         style="font-size:53.33333588px"
         id="path3731"
         inkscape:connector-curvature="0" />
      <path
         d="m 181.69857,45.047538 h 4.79166 v 29.166668 h -4.79166 z m 0,-11.354167 8.38103,2.8715 -3.58937,3.196208 h -4.79166 z"
         style="font-size:53.33333588px"
         id="path3733"
         inkscape:connector-curvature="0"
         sodipodi:nodetypes="cccccccccc" />
      <path
         d="m 215.08398,45.906913 v 4.53125 q -2.03125,-1.041667 -4.21875,-1.5625 -2.1875,-0.520833 -4.53125,-0.520833 -3.5677,0 -5.36458,1.09375 -1.77083,1.09375 -1.77083,3.28125 0,1.666667 1.27604,2.630208 1.27604,0.9375 5.13021,1.796875 l 1.64062,0.364584 q 5.10417,1.09375 7.23959,3.098958 2.16145,1.979167 2.16145,5.546875 0,4.062501 -3.22916,6.432292 -3.20313,2.369792 -8.82813,2.369792 -2.34375,0 -4.89583,-0.46875 -2.52604,-0.442708 -5.33854,-1.354167 v -4.947916 q 2.65625,1.380208 5.23437,2.083333 2.57813,0.677083 5.10417,0.677083 3.38542,0 5.20833,-1.145833 1.82292,-1.171875 1.82292,-3.28125 0,-1.953125 -1.32813,-2.994792 -1.30208,-1.041667 -5.7552,-2.005208 l -1.66667,-0.390625 q -4.45313,-0.9375 -6.43229,-2.864584 -1.97917,-1.953125 -1.97917,-5.338542 0,-4.114583 2.91667,-6.354167 2.91666,-2.239583 8.28125,-2.239583 2.65625,0 5,0.390625 2.34375,0.390625 4.32291,1.171875 z"
         style="font-size:53.33333588px"
         id="path3735"
         inkscape:connector-curvature="0" />
      <path
         d="m 226.78453,70.736549 v 15.46875 h -4.81771 V 45.944881 h 4.81771 v 4.427083 q 1.51042,-2.604166 3.80208,-3.854166 2.31771,-1.276042 5.52084,-1.276042 5.3125,0 8.61979,4.21875 3.33333,4.21875 3.33333,11.093751 0,6.875 -3.33333,11.09375 -3.30729,4.21875 -8.61979,4.21875 -3.20313,0 -5.52084,-1.25 -2.29166,-1.276042 -3.80208,-3.880208 z m 16.30208,-10.182292 q 0,-5.286459 -2.1875,-8.281251 -2.16145,-3.020833 -5.96354,-3.020833 -3.80208,0 -5.98958,3.020833 -2.16146,2.994792 -2.16146,8.281251 0,5.286458 2.16146,8.307292 2.1875,2.994791 5.98958,2.994791 3.80209,0 5.96354,-2.994791 2.1875,-3.020834 2.1875,-8.307292 z"
         style="font-size:53.33333588px"
         id="path3737"
         inkscape:connector-curvature="0" />
      <path
         d="m 385.28416,49.415573 c -2.56945,0 -4.6007,1.006942 -6.09375,3.020825 -1.49305,1.996508 -2.23958,4.739548 -2.23958,8.229121 0,3.489591 0.73785,6.241333 2.21354,8.255225 1.49305,1.99653 3.35351,-9.747489 5.94032,-9.747489 2.55208,0 4.75412,11.735329 6.24718,9.721439 1.49305,-2.013885 2.23958,-4.756944 2.23958,-8.229175 0,-3.454844 -0.74653,-6.189204 -2.23958,-8.203081 -1.49306,-2.031243 -3.51563,-3.046865 -6.06771,-3.046865 z m 0,-4.062489 c 4.16667,0 7.43924,1.354163 9.81771,4.062489 2.37847,2.708325 3.56771,6.458307 3.56771,11.249946 0,4.774319 -1.18924,8.524325 -3.56771,11.250015 -2.37847,2.70833 -5.65104,4.06249 -9.81771,4.06249 -4.18403,0 -7.46528,-1.35416 -9.84375,-4.06249 -2.36111,-2.72569 -3.54167,-6.475696 -3.54167,-11.250015 0,-4.791639 1.18056,-8.541621 3.54167,-11.249946 2.37847,-2.708326 5.65972,-4.062489 9.84375,-4.062489 z"
         style="font-size:53.33333588px"
         id="path3739"
         inkscape:connector-curvature="0"
         sodipodi:nodetypes="scscscscsssscscscs" />
      <path
         d="m 268.53581,36.410808 h 7.83854 l 9.92188,26.458334 9.97396,-26.458334 h 7.83854 v 38.88021 h -5.13021 V 41.150391 l -10.02604,26.666668 h -5.28646 L 273.63998,41.150391 v 34.140627 h -5.10417 z"
         style="font-size:53.33333588px"
         id="path3741"
         inkscape:connector-curvature="0" />
      <path
         d="m 327.62436,60.629559 c 1.68135,-3.487373 -6.55382,0.442708 -8.04688,1.328125 -1.49305,0.885417 -2.23958,2.395833 -2.23958,4.53125 0,1.701389 0.55556,3.055556 1.66667,4.0625 1.12847,0.989583 2.65625,1.484375 4.58333,1.484375 2.65625,0 4.78299,-0.9375 6.38021,-2.8125 1.61459,-1.892361 2.42188,-4.401042 2.42188,-7.526042 l -7.44795,4.495823 z m 9.55729,-1.979167 v 16.640626 h -4.79166 v -4.427084 c -1.09375,1.770833 -2.4566,3.081597 -4.08855,3.932292 -1.63194,0.833333 -3.62847,1.25 -5.98958,1.25 -2.98611,0 -5.36459,-0.833333 -7.13542,-2.5 -1.75347,-1.684028 -2.63021,-3.932292 -2.63021,-6.744792 0,-3.28125 1.09375,-5.755208 3.28125,-7.421875 2.20487,-1.666667 5.48612,-2.5 9.84375,-2.5 h 6.71876 v -0.46875 c 0,-2.204861 -0.72917,-3.90625 -2.1875,-5.104167 -1.44097,-1.215278 -3.47223,-1.822917 -6.09376,-1.822917 -1.66667,0 -3.28993,0.199653 -4.86979,0.598958 -1.57986,0.399306 -3.09896,0.998264 -4.55729,1.796875 v -4.427083 c 1.75347,-0.677083 3.45486,-1.180556 5.10417,-1.510417 1.64931,-0.347222 3.25521,-0.520833 4.81771,-0.520833 4.21875,0 7.36979,1.09375 9.45312,3.28125 2.08333,2.1875 3.125,5.503472 3.125,9.947917 z"
         style="font-size:53.33333588px"
         id="path3743"
         inkscape:connector-curvature="0"
         sodipodi:nodetypes="scscscscssccccscscscscsscccsss" />
      <path
         d="m 365.67123,46.983725 v 4.53125 q -2.03125,-1.041667 -4.21875,-1.5625 -2.1875,-0.520833 -4.53125,-0.520833 -3.56771,0 -5.36458,1.09375 -1.77084,1.09375 -1.77084,3.28125 0,1.666667 1.27604,2.630208 1.27605,0.9375 5.13021,1.796875 l 1.64063,0.364584 q 5.10417,1.09375 7.23958,3.098958 2.16146,1.979167 2.16146,5.546875 0,4.062501 -3.22917,6.432292 -3.20312,2.369792 -8.82812,2.369792 -2.34375,0 -4.89584,-0.46875 -2.52604,-0.442708 -5.33854,-1.354167 v -4.947916 q 2.65625,1.380208 5.23438,2.083333 2.57812,0.677083 5.10416,0.677083 3.38542,0 5.20834,-1.145833 1.82292,-1.171875 1.82292,-3.28125 0,-1.953125 -1.32813,-2.994792 -1.30208,-1.041667 -5.75521,-2.005208 l -1.66667,-0.390625 q -4.45312,-0.9375 -6.43229,-2.864584 -1.97916,-1.953125 -1.97916,-5.338542 0,-4.114583 2.91666,-6.354167 2.91667,-2.239583 8.28125,-2.239583 2.65625,0 5,0.390625 2.34375,0.390625 4.32292,1.171875 z"
         style="font-size:53.33333588px"
         id="path3745"
         inkscape:connector-curvature="0" />
      <path
         d="m 248.00116,49.124787 q -3.85417,0 -6.09375,3.020833 -2.23959,2.994792 -2.23959,8.229168 0,5.234375 2.21355,8.255208 2.23958,2.994792 6.11979,2.994792 3.82812,0 6.06771,-3.020833 2.23958,-3.020834 2.23958,-8.229167 0,-5.182292 -2.23958,-8.203126 -2.23959,-3.046875 -6.06771,-3.046875 z m 0,-4.0625 q 6.25,0 9.81771,4.0625 3.56771,4.0625 3.56771,11.250001 0,7.161458 -3.56771,11.25 -3.56771,4.0625 -9.81771,4.0625 -6.27604,0 -9.84375,-4.0625 -3.54167,-4.088542 -3.54167,-11.25 0,-7.187501 3.54167,-11.250001 3.56771,-4.0625 9.84375,-4.0625 z"
         style="font-size:53.33333588px"
         id="path3747"
         inkscape:connector-curvature="0" />
    </g>
  </g>
</svg>
